:SAMPLES-PER-SECOND 30
:FULLY-SPECIFIED
:DEGREES
124
root  -4.97076 36.6107 -6.57435 99.2898 -78.2766 -106.166
RightUpLeg  -9.27554 -22.5067 -5.50648
RightLeg  42.3468 -3.5435 -3.75135
RightFoot  -5.86938 -1.01118 20.0873
RightToes  6.35927e-011 1.30204e-014 -6.03759e-014
Spine  19.2343 -1.53586 -9.1821
Spine1  -2.75957 -4.08669 10.5535
HEad  -10.7373 -12.6899 6.49632
LeftShoulder1  2.72315 -6.3616 -21.237
LeftArm  23.3965 -2.3634 -60.4566
LeftForeArm  72.3302 -72.1183 -25.9128
LeftHand  1.23666 1.14189 -34.2219
RightShoulder  1.43166 2.05694 19.3517
RightArm  -22.4364 -17.0232 46.3068
RightForeArm  117.271 81.4354 77.2004
RightHand  -3.13473 -23.2561 18.4439
LeftUpLeg  -17.313 2.18695 33.6363
LeftLeg  46.8102 8.35022 9.78476
LeftFoot  2.64758 3.67732 -29.5081
LeftToes  7.40077e-010 7.2695e-011 -6.03601e-011
125
root  -5.19637 36.7066 -6.16867 73.8551 -81.9142 -81.4123
RightUpLeg  -6.51119 -21.7305 -10.0041
RightLeg  41.4024 -6.97612 -6.83259
RightFoot  -6.7221 -0.914218 21.2693
RightToes  6.35927e-011 1.30204e-014 -6.03759e-014
Spine  18.9451 -1.89246 -3.28397
Spine1  -2.4413 -2.77546 5.55298
HEad  -9.01475 3.6028 -1.3389
LeftShoulder1  2.65345 -6.05092 -21.4157
LeftArm  17.8814 -0.216928 -56.2705
LeftForeArm  64.6435 -70.7503 -24.6435
LeftHand  -2.1059 10.4856 -42.6757
RightShoulder  1.38051 1.93286 18.9706
RightArm  -15.6383 -16.2461 47.43
RightForeArm  100.182 80.1105 54.9037
RightHand  -4.5468 -20.9254 31.0732
LeftUpLeg  -22.9754 12.5254 29.8271
LeftLeg  51.935 3.26843 4.92549
LeftFoot  11.4871 5.90451 -29.0753
LeftToes  7.40077e-010 7.2695e-011 -6.03601e-011
126
root  -5.54426 36.9523 -5.61482 36.0837 -84.4364 -44.5565
RightUpLeg  -2.86556 -20.459 -15.5061
RightLeg  39.1634 -10.1644 -9.03787
RightFoot  -7.22575 -0.822115 21.3087
RightToes  6.35927e-011 1.30204e-014 -6.03759e-014
Spine  18.0173 -1.86545 2.16722
Spine1  -2.59213 -0.982525 -0.973044
HEad  -7.74079 20.038 -8.04853
LeftShoulder1  2.47979 -5.6176 -20.7875
LeftArm  10.6463 2.38863 -51.2379
LeftForeArm  62.3196 -71.3277 -26.0886
LeftHand  -5.61226 17.7205 -47.2116
RightShoulder  1.30241 1.72236 18.463
RightArm  -8.42616 -15.8475 48.0028
RightForeArm  99.7791 79.8354 51.8961
RightHand  -4.13142 -16.03 40.7665
LeftUpLeg  -27.2301 25.0926 23.9811
LeftLeg  57.42 -0.296088 -0.000227296
LeftFoot  17.6825 7.14071 -27.5404
LeftToes  7.40077e-010 7.2695e-011 -6.03601e-011
127
root  -5.97814 37.3309 -4.97144 -8.33275 -84.9511 -0.929459
RightUpLeg  0.869158 -18.2729 -20.7234
RightLeg  35.526 -12.6773 -9.81585
RightFoot  -6.09629 -1.07044 22.0982
RightToes  6.35927e-011 1.30204e-014 -6.03759e-014
Spine  17.037 -1.16209 6.41016
Spine1  -3.43776 0.996591 -6.78012
HEad  -7.20627 36.5607 -13.4862
LeftShoulder1  2.10487 -4.56943 -19.5778
LeftArm  2.55929 5.27517 -46.435
LeftForeArm  63.9683 -73.8346 -31.6847
LeftHand  -7.71872 23.0702 -45.2244
RightShoulder  1.21345 1.55345 17.4556
RightArm  -3.43532 -16.5985 48.127
RightForeArm  125.877 81.6444 79.7865
RightHand  -2.21011 -10.4011 44.81
LeftUpLeg  -30.198 37.9844 18.2708
LeftLeg  62.9586 -1.93123 -3.40431
LeftFoot  19.3515 7.1526 -26.1001
LeftToes  7.40077e-010 7.2695e-011 -6.03601e-011
128
root  -6.44706 37.684 -4.20241 -31.6991 -83.0827 22.3203
RightUpLeg  3.68799 -14.8492 -24.0606
RightLeg  32.0899 -15.7851 -10.6417
RightFoot  -2.97557 -1.85677 24.6473
RightToes  6.35927e-011 1.30204e-014 -6.03759e-014
Spine  15.4715 -0.352718 10.0542
Spine1  -4.18035 2.43225 -10.0759
HEad  -6.77247 51.8414 -17.1255
LeftShoulder1  1.5903 -2.92717 -18.1283
LeftArm  -5.21293 7.62459 -42.629
LeftForeArm  75.4333 -77.5891 -44.064
LeftHand  -6.02879 22.9497 -35.5254
RightShoulder  1.0924 1.36192 15.7653
RightArm  -1.76633 -18.3692 48.1661
RightForeArm  172.542 78.7457 132.22
RightHand  -1.00403 -7.89085 40.5155
LeftUpLeg  -32.9882 46.9937 13.5076
LeftLeg  66.489 -1.04733 -1.94379
LeftFoot  19.9873 7.05973 -25.2646
LeftToes  7.40077e-010 7.2695e-011 -6.03601e-011
129
root  -6.8674 37.9241 -3.39975 -32.7091 -79.8356 23.6645
RightUpLeg  5.84457 -11.1301 -25.4053
RightLeg  30.5644 -21.5609 -13.4064
RightFoot  0.860794 -2.85143 26.3633
RightToes  6.35927e-011 1.30204e-014 -6.03759e-014
Spine  12.9402 0.0248966 13.2331
Spine1  -3.71608 3.06864 -11.7193
HEad  -5.60798 62.7068 -18.4455
LeftShoulder1  1.18132 -1.52183 -16.8214
LeftArm  -11.8314 8.48619 -39.5956
LeftForeArm  101.102 -80.6285 -64.2298
LeftHand  -2.20502 16.7913 -19.6309
RightShoulder  0.961965 1.10111 14.0534
RightArm  -2.1775 -20.4349 48.0105
RightForeArm  -171.091 70.8828 154.765
RightHand  -0.568182 -7.28802 24.8183
LeftUpLeg  -34.3882 49.4972 9.3064
LeftLeg  64.6206 0.371015 1.43333
LeftFoot  23.0327 6.99093 -22.882
LeftToes  7.40077e-010 7.2695e-011 -6.03601e-011
130
root  -7.15403 38.0818 -2.68185 -31.3351 -75.6213 22.3812
RightUpLeg  8.13167 -8.80826 -26.3999
RightLeg  30.6855 -29.0233 -17.4502
RightFoot  4.35419 -3.36509 24.3521
RightToes  6.35927e-011 1.30204e-014 -6.03759e-014
Spine  10.827 -0.0739827 15.0063
Spine1  -2.59417 3.15802 -13.1788
HEad  -4.91356 67.0957 -18.7866
LeftShoulder1  1.03079 -1.04421 -15.8979
LeftArm  -17.3831 8.06764 -36.7554
LeftForeArm  131.302 -81.7908 -87.9446
LeftHand  0.0494005 11.5023 1.54608
RightShoulder  0.872022 0.857305 13.0698
RightArm  -3.31439 -21.9312 47.3426
RightForeArm  -168.021 64.1489 161.982
RightHand  -0.0725884 -5.25093 0.626742
LeftUpLeg  -31.2268 45.5959 6.81711
LeftLeg  56.8373 -1.39446 -1.43532
LeftFoot  28.0863 6.84416 -19.4225
LeftToes  7.40077e-010 7.2695e-011 -6.03601e-011
131
root  -7.27728 38.1247 -2.01516 -33.3253 -71.7513 24.2976
RightUpLeg  10.0814 -7.62163 -28.3302
RightLeg  31.1388 -35.0667 -20.6952
RightFoot  6.86341 -3.22702 20.2229
RightToes  6.35927e-011 1.30204e-014 -6.03759e-014
Spine  10.5336 -0.373728 15.1605
Spine1  -2.34471 3.09917 -14.9519
HEad  -6.32177 66.6974 -20.4408
LeftShoulder1  1.02439 -1.13612 -15.243
LeftArm  -22.4479 7.70131 -34.3124
LeftForeArm  153.929 -81.4143 -108.719
LeftHand  0.893573 9.88041 22.2346
RightShoulder  0.83477 0.736981 12.7232
RightArm  -4.96513 -22.328 46.1539
RightForeArm  -167.449 59.1403 165.307
RightHand  -0.379667 -2.70075 -18.8284
LeftUpLeg  -24.6442 35.7474 5.59795
LeftLeg  48.0722 -8.58368 -9.71102
LeftFoot  27.7649 6.5761 -18.9259
LeftToes  7.40077e-010 7.2695e-011 -6.03601e-011
132
root  -7.28543 37.9026 -1.27195 -37.177 -69.8851 28.3759
RightUpLeg  10.2639 -5.87773 -30.7631
RightLeg  32.3498 -37.8628 -22.8711
RightFoot  7.82462 -2.93552 17.5687
RightToes  6.35927e-011 1.30204e-014 -6.03759e-014
Spine  11.5028 -0.44019 15.0585
Spine1  -2.91687 3.29974 -16.7106
HEad  -8.13674 65.157 -22.6862
LeftShoulder1  0.992783 -1.05174 -14.9339
LeftArm  -27.1171 8.24805 -33.0856
LeftForeArm  167.268 -80.2915 -123.042
LeftHand  1.38832 9.44446 37.2187
RightShoulder  0.811064 0.672676 12.4277
RightArm  -7.16917 -21.6466 44.833
RightForeArm  -167.161 55.2241 167.358
RightHand  -0.775359 -1.96106 -26.6019
LeftUpLeg  -19.1274 22.6263 3.76025
LeftLeg  43.5593 -14.3217 -13.8973
LeftFoot  16.2498 4.77916 -19.5677
LeftToes  7.40077e-010 7.2695e-011 -6.03601e-011
133
root  -7.21935 37.4591 -0.490498 -42.6993 -70.4462 34.3206
RightUpLeg  8.2888 -3.32225 -32.9044
RightLeg  34.6904 -37.692 -24.5955
RightFoot  7.56386 -2.68727 16.3494
RightToes  6.35927e-011 1.30204e-014 -6.03759e-014
Spine  12.528 0.0150015 15.0915
Spine1  -2.85695 3.97783 -17.8412
HEad  -7.76961 63.7855 -23.2771
LeftShoulder1  0.962768 -0.821124 -15.4462
LeftArm  -30.9591 9.59786 -33.435
LeftForeArm  174.797 -79.3628 -130.355
LeftHand  1.66823 9.37182 45.0217
RightShoulder  0.767101 0.518044 12.0449
RightArm  -9.13769 -20.3533 44.0539
RightForeArm  -165.565 53.4636 168.263
RightHand  -0.673166 -2.54093 -26.9865
LeftUpLeg  -15.9677 13.3928 0.992147
LeftLeg  41.6987 -12.282 -11.1245
LeftFoot  2.0109 2.07467 -17.7125
LeftToes  7.40077e-010 7.2695e-011 -6.03601e-011
134
root  -7.10346 37.0293 0.147468 -50.7908 -72.3215 42.7829
RightUpLeg  4.99003 -0.904092 -34.6477
RightLeg  36.8094 -35.4467 -25.1144
RightFoot  6.84594 -2.42643 15.3761
RightToes  6.35927e-011 1.30204e-014 -6.03759e-014
Spine  13.3266 0.816705 14.0573
Spine1  -1.86576 4.73884 -17.9361
HEad  -4.39598 60.0864 -21.287
LeftShoulder1  1.05985 -0.978898 -16.9294
LeftArm  -33.6687 11.603 -34.9359
LeftForeArm  178.749 -79.2696 -131.68
LeftHand  1.72502 9.24644 47.8565
RightShoulder  0.731002 0.330998 12.0405
RightArm  -9.74352 -18.9697 44.3799
RightForeArm  -161.644 55.0839 167.79
RightHand  -0.526484 -3.07691 -26.0583
LeftUpLeg  -13.9076 11.0648 -1.58862
LeftLeg  39.8723 -7.77214 -6.52925
LeftFoot  -7.32902 0.60066 -16.1089
LeftToes  7.40077e-010 7.2695e-011 -6.03601e-011
135
root  -6.96789 36.6911 0.597481 -60.367 -74.2175 52.8466
RightUpLeg  0.707325 0.7282 -36.0257
RightLeg  39.08 -31.8748 -24.844
RightFoot  6.61387 -2.43183 15.5698
RightToes  6.35927e-011 1.30204e-014 -6.03759e-014
Spine  13.982 1.2873 11.8772
Spine1  -1.13833 4.85808 -17.2019
HEad  0.0308423 51.0245 -18.3511
LeftShoulder1  1.28885 -1.57555 -18.8168
LeftArm  -35.1821 14.1317 -36.9382
LeftForeArm  175.629 -80.0425 -126.75
LeftHand  1.64876 8.95375 49.1903
RightShoulder  0.756876 0.331039 12.7833
RightArm  -9.09067 -17.8112 45.8733
RightForeArm  -157.277 59.5992 165.775
RightHand  -0.423919 -3.47575 -25.4169
LeftUpLeg  -12.9472 12.314 -3.03301
LeftLeg  38.5083 -5.05026 -3.89726
LeftFoot  -12.5139 -0.0893357 -15.6625
LeftToes  7.40077e-010 7.2695e-011 -6.03601e-011
136
root  -6.78833 36.42 0.877117 -70.4277 -75.7066 63.6618
RightUpLeg  -5.00532 1.07308 -37.1881
RightLeg  43.2488 -28.2875 -25.7199
RightFoot  8.7247 -2.70407 15.5594
RightToes  6.35927e-011 1.30204e-014 -6.03759e-014
Spine  14.7421 1.06331 9.3357
Spine1  -1.2886 4.22528 -16.9206
HEad  3.4133 36.6091 -15.9842
LeftShoulder1  1.53742 -2.22047 -20.4264
LeftArm  -35.3079 16.3737 -38.974
LeftForeArm  161.254 -81.0958 -114.752
LeftHand  1.53624 8.80455 47.8906
RightShoulder  0.842938 0.542696 13.9961
RightArm  -8.351 -17.0678 48.3777
RightForeArm  -155.788 65.2787 162.034
RightHand  -0.197773 -4.39359 -21.6952
LeftUpLeg  -13.5273 14.045 -3.49869
LeftLeg  38.9802 -4.02689 -3.08242
LeftFoot  -15.6861 -0.507255 -15.7453
LeftToes  7.40077e-010 7.2695e-011 -6.03601e-011
137
root  -6.53216 36.1732 1.03704 -82.2842 -77.1652 75.936
RightUpLeg  -11.9767 -0.767698 -37.7247
RightLeg  48.9042 -24.7196 -27.409
RightFoot  14.0354 -2.51936 11.7283
RightToes  6.35927e-011 1.30204e-014 -6.03759e-014
Spine  16.1096 0.292931 7.47722
Spine1  -1.76277 3.35339 -17.7931
HEad  5.53017 19.2811 -13.3925
LeftShoulder1  1.72928 -2.71653 -21.4344
LeftArm  -33.851 17.2438 -40.9743
LeftForeArm  141.449 -81.6422 -99.2779
LeftHand  1.33105 9.03864 40.0226
RightShoulder  0.929193 0.758681 15.0669
RightArm  -8.35431 -16.8207 51.5587
RightForeArm  -159.906 70.5679 156.261
RightHand  0.0508523 -6.17697 -12.7574
LeftUpLeg  -14.9457 15.2786 -3.1642
LeftLeg  41.1976 -2.66627 -2.06319
LeftFoot  -17.4631 -0.752389 -15.9335
LeftToes  7.40077e-010 7.2695e-011 -6.03601e-011
